<?xml version="1.0" encoding="UTF-8" standalone="no"?>
<svg
   width="24px"
   height="24px"
   viewBox="0 0 24 24"
   version="1.1"
   id="svg87"
   sodipodi:docname="external_link_icon.svg"
   inkscape:version="1.2.1 (9c6d41e, 2022-07-14)"
   xmlns:inkscape="http://www.inkscape.org/namespaces/inkscape"
   xmlns:sodipodi="http://sodipodi.sourceforge.net/DTD/sodipodi-0.dtd"
   xmlns="http://www.w3.org/2000/svg"
   xmlns:svg="http://www.w3.org/2000/svg">
  <defs
     id="defs91" />
  <sodipodi:namedview
     id="namedview89"
     pagecolor="#ffffff"
     bordercolor="#000000"
     borderopacity="0.25"
     inkscape:showpageshadow="2"
     inkscape:pageopacity="0.0"
     inkscape:pagecheckerboard="0"
     inkscape:deskcolor="#d1d1d1"
     showgrid="false"
     inkscape:zoom="36.458333"
     inkscape:cx="12.027429"
     inkscape:cy="12.041143"
     inkscape:window-width="2488"
     inkscape:window-height="1403"
     inkscape:window-x="72"
     inkscape:window-y="0"
     inkscape:window-maximized="1"
     inkscape:current-layer="svg87" />
  <path
     d="M18,10.82a1,1,0,0,0-1,1V19a1,1,0,0,1-1,1H5a1,1,0,0,1-1-1V8A1,1,0,0,1,5,7h7.18a1,1,0,0,0,0-2H5A3,3,0,0,0,2,8V19a3,3,0,0,0,3,3H16a3,3,0,0,0,3-3V11.82A1,1,0,0,0,18,10.82Zm3.92-8.2a1,1,0,0,0-.54-.54A1,1,0,0,0,21,2H15a1,1,0,0,0,0,2h3.59L8.29,14.29a1,1,0,0,0,0,1.42,1,1,0,0,0,1.42,0L20,5.41V9a1,1,0,0,0,2,0V3A1,1,0,0,0,21.92,2.62Z"
     id="path85"
     style="fill:#f2f2f2;fill-opacity:1" />
</svg>
